<?xml version="1.0" standalone="no"?>
<!DOCTYPE svg PUBLIC "-//W3C//DTD SVG 20010904//EN"
 "http://www.w3.org/TR/2001/REC-SVG-20010904/DTD/svg10.dtd">
<svg version="1.0" xmlns="http://www.w3.org/2000/svg"
 width="260.000000pt" height="260.000000pt" viewBox="0 0 260.000000 260.000000"
 preserveAspectRatio="xMidYMid meet">
<metadata>
Created by potrace 1.14, written by Peter Selinger 2001-2017
</metadata>
<g transform="translate(0.000000,260.000000) scale(0.100000,-0.100000)"
fill="#000000" stroke="none">
<path d="M695 2594 c-97 -21 -162 -38 -172 -46 -7 -6 -13 -8 -13 -4 0 11 -153
-74 -200 -112 -99 -79 -186 -188 -230 -287 -13 -28 -26 -57 -30 -65 -4 -8 -16
-47 -26 -85 -18 -65 -19 -113 -19 -680 0 -335 3 -630 8 -655 42 -251 217 -477
457 -587 147 -68 131 -67 805 -70 619 -2 659 0 774 36 50 15 201 92 201 101 0
5 8 11 19 15 28 9 153 136 194 197 47 72 90 167 113 253 18 65 19 114 19 680
0 336 -3 630 -8 655 -25 152 -105 305 -220 422 -110 112 -237 181 -412 224
-31 8 -1225 15 -1260 8z"/>
</g>
</svg>
